<?xml version="1.0" standalone="no"?><!DOCTYPE svg PUBLIC "-//W3C//DTD SVG 1.1//EN" "http://www.w3.org/Graphics/SVG/1.1/DTD/svg11.dtd"><svg t="1725430746519" class="icon" viewBox="0 0 1024 1024" version="1.1" xmlns="http://www.w3.org/2000/svg" p-id="28397" xmlns:xlink="http://www.w3.org/1999/xlink" width="200" height="200"><path d="M511.5 128c106.258 0 202.423 43.215 271.878 113.029l-2.37 0.848c121.386-43.498 148.687-30.329 172.55 10.983 19.755 34.265-6.497 93-70.873 161.878C890.724 445.648 895 478.074 895 511.5 895 723.301 723.301 895 511.5 895c-105.043 0-200.222-42.232-269.484-110.644-87.827 22.545-150.287 20.62-168.663-11.227-20.609-35.733-5.563-80.1 70.433-152.385C133.514 586.122 128 549.455 128 511.5 128 299.699 299.699 128 511.5 128z m317.331 338.79l-1.994 1.762c-58.532 51.476-134.992 106.192-226.625 159.143C497.25 687.171 397.7 733.288 313.092 762.687 367.707 806.08 436.826 832 512 832c176.731 0 320-143.269 320-320 0-15.346-1.08-30.44-3.169-45.21zM165.934 678.007l-0.914 0.95C139.394 705.7 128.76 728.534 133.03 736c4.002 6.935 27.842 3.445 62.841-6.61a382.954 382.954 0 0 1-29.937-51.384zM512 192c-176.731 0-320 143.269-320 320 0 74.08 25.173 142.282 67.432 196.516 103.61-37.167 243.072-99.023 307.84-136.427 61.755-35.696 166.295-115.371 240.846-181.608C760.273 274.012 645.714 192 512 192zM369.661 430.5c19.89-0.003 38.272 10.717 48.218 28.123 9.947 17.405 9.947 38.85 0 56.254-9.946 17.406-28.327 28.126-48.218 28.123-30.742-0.005-55.661-25.187-55.661-56.25s24.919-56.245 55.661-56.25zM453.165 318C468.538 318 481 330.592 481 346.125s-12.462 28.125-27.835 28.125c-15.372 0-27.835-12.592-27.835-28.125S437.793 318 453.165 318z m375.9-22.34l-0.413 0.165a383.1 383.1 0 0 1 28.231 48.791C883.81 317.286 899.328 296.53 895 289c-5.597-9.624-20.757-11.548-65.935 6.66z" fill="#000000" p-id="28398"></path></svg>